<svg width="782" height="732" fill="none" xmlns="http://www.w3.org/2000/svg"><path d="M415.481 383.163l127.491 215.013c1.071 1.81 2.564 2.864 4.113 2.864l105.403.622c2.366.027 4.536-2.351 5.437-6 .902-3.648.451-7.81-1.211-10.621L533.308 376.948l126.026-206.635c1.691-2.783 2.226-6.972 1.324-10.621-.901-3.648-3.014-6.026-5.381-6.053l-105.402-.622c-1.55 0-3.043 1.027-4.17 2.811L415.509 369.326c-2.282 3.838-2.31 10-.028 13.837z" fill="#fff"/><path d="M699.568 456.618c45.234 0 81.904-35.174 81.904-78.563 0-43.388-36.67-78.562-81.904-78.562-45.235 0-81.904 35.174-81.904 78.562 0 43.389 36.669 78.563 81.904 78.563zM333.069 317.654L472.59 109.641c1.184-1.756 1.466-3.513.733-4.837l-48.292-89.886c-1.07-2.027-4.254-2.756-8.058-1.865-3.803.892-7.41 3.243-9.269 5.946L272.69 220.336 23.4 209.04c-3.354-.162-7.467 1.324-10.426 3.783-2.958 2.46-4.17 5.351-3.099 7.378l48.292 89.886c.704 1.324 2.338 2.135 4.536 2.243l257.574 11.675c4.593.162 10.312-2.648 12.792-6.351z" fill="#fff"/><path d="M196.646 157.125c45.234 0 81.904-35.174 81.904-78.563S241.88 0 196.646 0c-45.235 0-81.904 35.173-81.904 78.562 0 43.389 36.669 78.563 81.904 78.563zM320.08 412.296l-257.546-12.54c-2.17-.108-3.888.541-4.733 1.784L.578 486.453c-1.296 1.919-.367 4.919 2.338 7.621 2.705 2.703 6.621 4.567 9.974 4.757l249.263 12.134 113.826 213.039c1.522 2.865 4.931 5.541 8.622 6.784 3.691 1.243 6.931.81 8.199-1.081l57.223-84.913c.845-1.244.76-3.027-.226-4.892l-117.63-220.12c-2.085-3.919-7.494-7.27-12.087-7.486z" fill="#fff"/><path d="M171.796 723.356c45.234 0 81.904-35.173 81.904-78.562 0-43.389-36.67-78.563-81.904-78.563-45.235 0-81.904 35.174-81.904 78.563s36.669 78.562 81.904 78.562z" fill="#fff"/></svg>