<svg width="40" height="40" viewBox="0 0 40 40" fill="none" xmlns="http://www.w3.org/2000/svg">
<path fill-rule="evenodd" clip-rule="evenodd" d="M20 17C21.3807 17 22.5 15.8807 22.5 14.5C22.5 13.1193 21.3807 12 20 12C18.6193 12 17.5 13.1193 17.5 14.5C17.5 15.8807 18.6193 17 20 17ZM20 20C23.0376 20 25.5 17.5376 25.5 14.5C25.5 11.4624 23.0376 9 20 9C16.9624 9 14.5 11.4624 14.5 14.5C14.5 17.5376 16.9624 20 20 20ZM13.4849 19.8136C14.0948 19.253 15.0437 19.2929 15.6044 19.9029C16.2968 20.6562 17.5791 21.5654 19.0765 21.8234C20.4701 22.0635 22.214 21.7741 24.083 19.8678C24.663 19.2763 25.6127 19.2669 26.2042 19.8469C26.7958 20.4268 26.8051 21.3765 26.2252 21.9681C24.9366 23.2823 23.5978 24.0946 22.2766 24.5207L26.3537 28.4007C26.9538 28.9718 26.9869 29.9303 26.4278 30.5415C25.8686 31.1528 24.9288 31.1853 24.3287 30.6142L19.9206 26.4191L15.5125 30.6142C14.9124 31.1853 13.9726 31.1528 13.4134 30.5415C12.8542 29.9303 12.8874 28.9718 13.4875 28.4007L17.5474 24.537C15.7229 23.9815 14.2651 22.8789 13.3957 21.933C12.835 21.3231 12.875 20.3742 13.4849 19.8136Z"/>
</svg>
