<svg width="40" height="40" viewBox="0 0 40 40" fill="none" xmlns="http://www.w3.org/2000/svg">
<path d="M13.6696 21.9706L24.2279 15.2176C25.365 14.9044 25.1754 15.5438 24.9385 15.9027C24.3632 16.5878 22.502 18.4864 19.6594 20.6004C16.8168 22.7144 17.2567 24.2216 17.832 24.7109C20.2347 26.7662 25.4867 30.6809 27.2735 29.898C29.507 28.9193 30.2177 17.7601 30.9283 12.5751C31.3054 9.82426 30.1161 9.83481 29.2024 10.1284C26.0891 11.3355 18.8472 14.1802 14.7864 15.9027C9.71028 18.0558 4.63419 19.8174 8.18745 21.2855C11.0301 22.4599 13.0267 22.2315 13.6696 21.9706Z"/>
</svg>
