<?xml version="1.0" standalone="no"?>
<!DOCTYPE svg PUBLIC "-//W3C//DTD SVG 20010904//EN"
 "http://www.w3.org/TR/2001/REC-SVG-20010904/DTD/svg10.dtd">
<svg version="1.0" xmlns="http://www.w3.org/2000/svg"
 width="752.000000pt" height="752.000000pt" viewBox="0 0 752.000000 752.000000"
 preserveAspectRatio="xMidYMid meet">
<metadata>
Created by potrace 1.14, written by Peter Selinger 2001-2017
</metadata>
<g transform="translate(0.000000,752.000000) scale(0.100000,-0.100000)"
fill="#000000" stroke="none">
<path d="M1710 7344 c-106 -22 -224 -75 -304 -134 -206 -154 -320 -387 -312
-640 4 -112 9 -150 32 -218 22 -67 71 -167 88 -181 9 -8 16 -20 16 -27 0 -8 5
-14 10 -14 6 0 10 -5 10 -10 0 -11 125 -140 136 -140 3 0 20 -12 37 -26 43
-36 195 -107 257 -119 100 -20 242 -27 300 -14 19 4 47 10 63 13 53 9 104 28
177 65 86 43 107 59 191 141 89 87 135 154 180 265 57 141 68 332 28 480 -28
102 -83 209 -144 284 -65 79 -216 201 -250 201 -4 0 -21 10 -38 22 -18 13 -33
22 -35 20 -1 -1 -26 4 -56 13 -89 26 -97 27 -211 30 -68 2 -135 -2 -175 -11z"/>
<path d="M3926 7218 c-28 -15 -54 -45 -107 -126 -37 -59 -73 -114 -79 -122
-11 -16 -106 -163 -251 -390 -51 -80 -96 -147 -99 -150 -3 -3 -10 -14 -17 -25
-21 -37 -113 -179 -184 -285 -38 -58 -72 -112 -76 -120 -4 -8 -11 -19 -15 -25
-11 -13 -272 -416 -293 -452 -5 -9 -14 -22 -20 -28 -5 -6 -19 -28 -30 -48 -11
-20 -23 -37 -27 -37 -5 0 -8 -5 -8 -10 0 -10 -45 -84 -65 -106 -5 -7 -22 -32
-36 -57 l-27 -44 -88 3 c-49 1 -134 5 -189 8 -55 3 -156 8 -225 11 -69 3 -170
7 -225 10 -140 8 -302 15 -425 20 -58 2 -152 7 -210 10 -58 3 -152 8 -210 10
-58 3 -159 7 -225 11 -66 3 -154 7 -195 9 -140 6 -354 16 -360 18 -3 1 -23 -2
-46 -6 -43 -7 -104 -55 -104 -82 0 -14 20 -66 30 -75 3 -3 32 -58 65 -122 96
-188 154 -301 255 -493 51 -99 99 -190 104 -203 12 -24 35 -35 81 -38 30 -1
282 -13 425 -19 41 -2 134 -6 205 -10 72 -4 160 -8 196 -9 36 -2 71 -6 77 -10
7 -4 12 -2 12 4 0 6 4 9 9 6 4 -3 64 -8 132 -11 68 -3 167 -8 219 -11 52 -2
145 -7 205 -9 61 -3 155 -8 210 -10 55 -3 147 -7 205 -10 98 -3 231 -10 430
-21 159 -8 172 -2 265 139 14 21 25 42 25 47 0 4 3 10 8 12 4 2 27 35 52 73
25 39 48 72 52 73 5 2 8 7 8 12 0 5 17 35 38 67 39 58 75 115 193 298 36 55
96 148 134 207 39 59 75 116 80 125 6 10 13 20 16 23 4 3 15 19 25 37 11 18
75 119 144 224 69 106 127 197 129 203 2 5 8 15 13 21 5 5 37 53 71 105 34 53
91 141 127 195 36 55 71 112 79 128 7 15 17 27 22 27 5 0 9 5 9 12 0 6 11 25
24 42 42 56 41 66 -17 177 -30 57 -83 160 -118 229 -35 69 -67 127 -71 128 -5
2 -8 12 -8 22 0 10 -3 20 -7 22 -5 2 -34 55 -66 118 -118 233 -151 290 -166
291 -9 0 -23 2 -31 4 -9 1 -33 -6 -54 -17z"/>
<path d="M5223 5852 c-24 -4 -63 -46 -63 -68 0 -8 -4 -14 -10 -14 -5 0 -10 -5
-10 -11 0 -6 -14 -30 -30 -55 -17 -24 -28 -44 -25 -44 3 0 -5 -15 -19 -33 -15
-19 -26 -37 -26 -41 0 -5 -8 -20 -19 -34 -10 -15 -29 -47 -43 -72 -32 -57
-124 -214 -153 -260 -12 -19 -92 -153 -176 -297 -85 -145 -164 -280 -176 -300
-13 -21 -27 -47 -33 -58 -6 -11 -23 -41 -38 -66 -31 -53 -299 -507 -312 -529
-64 -106 -90 -152 -90 -159 0 -5 -3 -11 -7 -13 -5 -1 -21 -27 -36 -56 -49 -91
-50 -89 142 -421 39 -68 71 -124 71 -126 0 -2 18 -33 40 -69 22 -36 40 -70 40
-75 0 -5 3 -11 8 -13 4 -1 15 -19 26 -38 28 -53 776 -1361 794 -1390 9 -14 17
-27 17 -30 2 -13 68 -121 78 -127 7 -4 86 -8 178 -9 91 0 170 -4 177 -8 7 -4
12 -4 12 1 0 9 157 9 166 0 3 -3 17 -2 31 2 15 4 48 4 75 1 27 -4 51 -3 54 2
3 5 9 6 14 3 18 -11 330 -9 341 2 22 22 37 86 28 117 -5 17 -38 82 -74 144
-36 62 -65 117 -65 122 0 6 -4 10 -10 10 -5 0 -10 4 -10 9 0 5 -31 64 -70 131
-38 67 -70 126 -70 130 0 5 -3 10 -7 12 -8 3 -46 69 -68 115 -5 13 -13 23 -17
23 -5 0 -8 4 -8 9 0 5 -40 80 -90 166 -49 86 -90 161 -90 166 0 5 -4 9 -9 9
-5 0 -14 14 -21 31 -7 17 -24 46 -36 65 -13 19 -21 34 -19 34 3 0 -11 25 -30
55 -19 30 -35 59 -35 65 0 5 -3 10 -8 10 -4 0 -16 20 -27 45 -11 25 -23 45
-27 45 -5 0 -8 6 -8 13 0 7 -6 19 -12 25 -7 7 -13 16 -13 20 -1 10 -56 104
-73 125 -8 9 -11 17 -6 17 5 0 5 4 -1 8 -5 4 -21 27 -34 52 -13 25 -31 53 -39
63 -8 9 -11 17 -7 17 4 0 1 8 -7 18 -9 9 -27 38 -42 65 -70 126 -79 143 -86
152 -16 22 -60 106 -60 115 0 7 136 245 200 350 49 80 90 154 90 161 0 5 4 9
8 9 4 0 18 19 30 43 24 44 38 68 137 236 33 56 65 110 70 119 57 97 70 118 79
124 6 4 7 8 3 8 -6 0 21 49 71 126 6 10 15 26 19 34 3 8 14 26 23 40 10 14 29
45 42 70 14 25 38 68 54 95 15 28 30 52 33 55 3 3 17 25 30 50 14 25 27 47 30
50 3 3 15 21 25 40 25 45 69 121 107 185 17 28 33 58 36 68 3 9 9 17 14 17 5
0 9 7 9 15 0 8 4 15 9 15 5 0 11 8 14 18 4 9 22 45 41 80 29 53 34 70 30 110
-7 82 -3 81 -332 82 -158 0 -379 2 -492 3 -113 1 -215 1 -227 -1z"/>
<path d="M6608 4414 c-3 -2 -29 -6 -59 -9 -102 -10 -217 -51 -314 -109 -66
-40 -65 -40 -149 -124 -82 -82 -143 -181 -180 -292 -32 -98 -39 -146 -39 -253
2 -115 25 -210 78 -322 112 -232 322 -387 585 -432 80 -13 223 -6 298 16 17 5
32 7 32 3 0 -3 5 -1 12 6 7 7 19 12 28 12 8 0 33 10 55 21 22 12 40 20 40 18
0 -5 97 57 133 86 42 33 124 120 152 159 60 88 111 205 126 291 3 22 8 48 10
58 8 47 3 194 -9 247 -20 85 -70 213 -94 238 -6 6 -15 21 -18 32 -3 11 -11 20
-16 20 -5 0 -9 6 -9 13 0 17 -149 167 -167 167 -7 0 -13 4 -13 9 0 9 -106 68
-160 89 -87 33 -125 42 -215 48 -38 3 -78 6 -87 8 -9 2 -18 2 -20 0z"/>
<path d="M565 3417 c-13 -7 -96 -124 -115 -162 -3 -5 -48 -75 -100 -155 -230
-349 -350 -538 -350 -552 0 -24 38 -66 73 -83 20 -9 78 -17 152 -20 156 -8
256 -13 385 -20 247 -12 320 -16 415 -20 110 -5 223 -11 390 -20 61 -3 155 -8
210 -10 55 -3 141 -7 190 -10 50 -3 135 -7 190 -10 369 -17 479 -25 487 -33 3
-4 41 -74 83 -157 122 -237 309 -600 487 -945 58 -113 147 -286 198 -385 158
-307 179 -347 189 -359 5 -6 10 -14 10 -19 1 -6 45 -95 103 -206 28 -52 66
-81 116 -88 28 -4 40 0 50 14 26 37 180 273 184 280 1 5 39 62 82 128 177 268
269 411 278 431 12 25 29 -11 -322 669 -134 259 -239 464 -335 650 -51 99
-123 238 -159 309 -37 72 -72 136 -78 143 -6 7 -8 13 -4 13 3 0 -4 17 -16 38
-13 20 -43 78 -68 127 -25 50 -49 93 -53 96 -5 3 -8 9 -8 13 2 15 -83 171
-102 188 -44 38 -49 39 -352 53 -60 3 -150 8 -200 10 -49 3 -137 7 -195 10
-58 2 -105 5 -105 5 0 1 -36 3 -80 5 -44 2 -132 6 -195 10 -63 3 -158 8 -211
10 -101 5 -233 11 -392 20 -54 3 -139 8 -190 10 -51 2 -137 7 -192 9 -55 3
-154 8 -220 12 -199 10 -214 11 -230 1z"/>
<path d="M1567 1784 c-1 -1 -25 -4 -54 -8 -28 -3 -63 -10 -77 -16 -14 -5 -26
-8 -26 -5 0 2 -32 -9 -71 -25 -145 -60 -272 -165 -356 -293 -36 -55 -72 -122
-78 -147 -1 -3 -9 -30 -19 -60 -43 -135 -41 -304 5 -449 74 -234 264 -426 496
-501 79 -25 175 -42 228 -41 61 1 164 13 198 22 23 7 44 13 47 14 53 12 171
70 231 115 142 104 263 285 296 440 12 58 15 86 18 172 4 137 -18 234 -83 363
-108 215 -341 383 -567 411 -11 1 -20 3 -20 4 0 3 -165 7 -168 4z"/>
</g>
</svg>
