<svg aria-hidden="true" style="width: 0px; height: 0px; overflow: hidden; position: absolute;" xmlns="http://www.w3.org/2000/svg">
    <symbol id="vk_icon" viewBox="0 0 40 40">
      <path d="M22.0874 27.9781C9.67197 28.5554 6.85957 17.5666 7.00529 12H11.5955C11.5955 19.2572 15.8214 22.3772 17.9343 23.0301V12H22.3059V18.2882C25.8032 18.2882 28.0619 14.0961 28.7541 12H33.1257C32.9508 14.8039 29.0455 18.46 27.1147 19.9375C30.7869 20.5148 33.235 25.401 34 27.7719H29.1912C27.7049 23.6486 23.836 22.4115 22.0874 22.3085V27.9781Z"/>
    </symbol>
    <symbol id="tg_icon" viewBox="0 0 40 40">
      <path d="M13.6696 21.9706L24.2279 15.2176C25.365 14.9044 25.1754 15.5438 24.9385 15.9027C24.3632 16.5878 22.502 18.4864 19.6594 20.6004C16.8168 22.7144 17.2567 24.2216 17.832 24.7109C20.2347 26.7662 25.4867 30.6809 27.2735 29.898C29.507 28.9193 30.2177 17.7601 30.9283 12.5751C31.3054 9.82426 30.1161 9.83481 29.2024 10.1284C26.0891 11.3355 18.8472 14.1802 14.7864 15.9027C9.71028 18.0558 4.63419 19.8174 8.18745 21.2855C11.0301 22.4599 13.0267 22.2315 13.6696 21.9706Z"/>
    </symbol>
    <symbol id="ok_icon" viewBox="0 0 40 40">
      <path fill-rule="evenodd" clip-rule="evenodd" d="M20 17C21.3807 17 22.5 15.8807 22.5 14.5C22.5 13.1193 21.3807 12 20 12C18.6193 12 17.5 13.1193 17.5 14.5C17.5 15.8807 18.6193 17 20 17ZM20 20C23.0376 20 25.5 17.5376 25.5 14.5C25.5 11.4624 23.0376 9 20 9C16.9624 9 14.5 11.4624 14.5 14.5C14.5 17.5376 16.9624 20 20 20ZM13.4849 19.8136C14.0948 19.253 15.0437 19.2929 15.6044 19.9029C16.2968 20.6562 17.5791 21.5654 19.0765 21.8234C20.4701 22.0635 22.214 21.7741 24.083 19.8678C24.663 19.2763 25.6127 19.2669 26.2042 19.8469C26.7958 20.4268 26.8051 21.3765 26.2252 21.9681C24.9366 23.2823 23.5978 24.0946 22.2766 24.5207L26.3537 28.4007C26.9538 28.9718 26.9869 29.9303 26.4278 30.5415C25.8686 31.1528 24.9288 31.1853 24.3287 30.6142L19.9206 26.4191L15.5125 30.6142C14.9124 31.1853 13.9726 31.1528 13.4134 30.5415C12.8542 29.9303 12.8874 28.9718 13.4875 28.4007L17.5474 24.537C15.7229 23.9815 14.2651 22.8789 13.3957 21.933C12.835 21.3231 12.875 20.3742 13.4849 19.8136Z"/>
    </symbol>
    <symbol id="close_icon" viewBox="0 0 46 46">
      <rect x="-8.1" y="22.5" transform="matrix(0.7071 -0.7071 0.7071 0.7071 -9.5269 23)" width="62.2" height="1"/>
      <rect x="23" y="-8.1" transform="matrix(0.7071 -0.7071 0.7071 0.7071 -9.3805 23.3536)" width="1" height="62.2"/>
    </symbol>
</svg>
